<svg width="25" height="24" viewBox="0 0 25 24" fill="none" xmlns="http://www.w3.org/2000/svg">
<g clip-path="url(#clip0_291_2237)">
<path d="M5.50183 20.1524C4.83887 19.4703 4.28335 18.7898 3.61952 18.2404C2.43249 17.2578 2.27178 16.1756 2.8273 14.7562C3.60992 12.7569 4.20998 10.6868 4.88953 8.64725C5.43457 7.01039 6.80415 6.37975 8.41306 7.00777C9.47431 7.42179 10.5426 7.84978 11.3549 8.66559C11.9855 9.29885 12.5611 10.0081 13.0468 10.7584C13.5053 11.4659 14.0364 11.962 14.874 12.1463C15.3527 12.252 15.8139 12.4477 16.2742 12.6267C17.1817 12.9787 17.594 13.8076 17.2953 14.647C16.9983 15.4829 16.144 15.8847 15.2365 15.5965C14.281 15.2934 13.3158 15.0121 12.3873 14.6409C11.9934 14.4828 11.6248 14.1675 11.347 13.8373C10.9295 13.3412 10.6019 12.7691 10.1958 12.1708C10.1207 12.3359 10.0665 12.4424 10.022 12.5534C9.42889 14.0365 8.8428 15.5231 8.23837 17.0027C8.13093 17.2665 8.14404 17.4316 8.35541 17.6465C9.36688 18.6719 10.3722 19.7043 11.3496 20.7621C12.2868 21.7771 11.9916 23.2785 10.7635 23.8122C10.5041 23.9249 10.2002 23.9834 9.91715 23.9843C7.26883 23.9965 4.61963 24.0105 1.97131 23.9843C0.439263 23.9694 -0.474373 22.44 0.25147 21.1604C0.619196 20.5132 1.20179 20.19 1.93986 20.1795C2.95832 20.1655 3.97677 20.1769 4.99609 20.1751C5.13585 20.1751 5.27385 20.1629 5.50183 20.1524Z" fill="#0082DC"/>
<path d="M18.4257 23.9931C17.5523 23.9931 16.6788 23.9992 15.8053 23.9913C14.7694 23.9826 14.2113 23.4306 14.2052 22.4016C14.1973 21.0766 14.2148 19.7524 14.1964 18.4274C14.1912 18.0282 14.3231 17.8946 14.7258 17.8981C16.8072 17.9138 18.8895 17.899 20.971 17.9121C21.268 17.9138 21.3972 17.8299 21.4898 17.54C22.0663 15.7258 22.6655 13.9195 23.2586 12.1105C23.4324 11.5795 23.4865 11.5533 24.0036 11.721C24.7452 11.9612 24.7443 11.9603 24.4936 12.7255C23.9128 14.4925 23.3293 16.2577 22.7581 18.0282C22.6795 18.2719 22.6367 18.5374 22.634 18.7934C22.6209 19.9865 22.6305 21.1805 22.6279 22.3745C22.6253 23.4218 22.0619 23.9835 21.0033 23.9913C20.1429 23.9974 19.2843 23.9931 18.4257 23.9931ZM18.4441 20.5988C18.7201 20.5988 18.997 20.5927 19.2721 20.6006C19.6512 20.6119 19.7342 20.3901 19.7315 20.0677C19.7289 19.7463 19.6398 19.5314 19.2642 19.5376C18.7262 19.5463 18.1881 19.5524 17.651 19.5349C17.2544 19.5218 17.1522 19.728 17.1505 20.0739C17.1479 20.4294 17.2693 20.6276 17.6588 20.6023C17.92 20.5848 18.1829 20.5988 18.4441 20.5988Z" fill="#0082DC"/>
<path d="M10.7638 6.63826C8.93218 6.66709 7.4342 5.1988 7.40712 3.34533C7.37917 1.52242 8.88851 0.0235656 10.7743 -1.77471e-05C12.5142 -0.0218542 14.0358 1.53902 14.0472 3.35755C14.0594 5.12194 12.5701 6.60944 10.7638 6.63826Z" fill="#0082DC"/>
<path d="M17.4338 15.9982C18.6068 14.64 18.5265 13.3246 17.2521 12.1681C17.0102 11.9489 17.1674 11.458 17.5499 11.3147C17.7028 11.258 17.8985 11.2484 18.0574 11.2868C18.5798 11.4126 19.0968 11.5619 19.6104 11.7183C20.1074 11.8703 20.2804 12.1873 20.1397 12.6931C19.8611 13.701 19.5772 14.709 19.282 15.7126C19.1379 16.2026 18.8069 16.3756 18.3116 16.248C18.0338 16.1755 17.7596 16.0917 17.4338 15.9982Z" fill="#0082DC"/>
</g>
<defs>
<clipPath id="clip0_291_2237">
<rect width="24.6437" height="24" fill="white"/>
</clipPath>
</defs>
</svg>
